<mxfile host="app.diagrams.net" agent="Mozilla/5.0 (Macintosh; Intel Mac OS X 10_15_7) AppleWebKit/605.1.15 (KHTML, like Gecko) Version/16.5 Safari/605.1.15" version="27.0.9">
  <diagram name="Страница — 1" id="oIGkv35JSirXxDSVPZw_">
    <mxGraphModel dx="969" dy="-588" grid="1" gridSize="10" guides="1" tooltips="1" connect="1" arrows="1" fold="1" page="1" pageScale="1" pageWidth="827" pageHeight="1169" math="0" shadow="0">
      <root>
        <mxCell id="0" />
        <mxCell id="1" parent="0" />
        <mxCell id="7xoEw0_jcS2L8A6iahL_-1" value="Начало" style="html=1;dashed=0;whiteSpace=wrap;shape=mxgraph.dfd.start" vertex="1" parent="1">
          <mxGeometry x="321.87" y="2250" width="160" height="30" as="geometry" />
        </mxCell>
        <mxCell id="7xoEw0_jcS2L8A6iahL_-2" value="selected" style="shape=parallelogram;perimeter=parallelogramPerimeter;whiteSpace=wrap;html=1;dashed=0;" vertex="1" parent="1">
          <mxGeometry x="320" y="2300" width="160" height="30" as="geometry" />
        </mxCell>
        <mxCell id="7xoEw0_jcS2L8A6iahL_-3" value="" style="endArrow=none;html=1;rounded=0;entryX=0.5;entryY=0.5;entryDx=0;entryDy=15;entryPerimeter=0;exitX=0.5;exitY=0;exitDx=0;exitDy=0;" edge="1" parent="1" source="7xoEw0_jcS2L8A6iahL_-2" target="7xoEw0_jcS2L8A6iahL_-1">
          <mxGeometry width="50" height="50" relative="1" as="geometry">
            <mxPoint x="420" y="2390" as="sourcePoint" />
            <mxPoint x="470" y="2340" as="targetPoint" />
          </mxGeometry>
        </mxCell>
        <mxCell id="7xoEw0_jcS2L8A6iahL_-4" value="" style="endArrow=none;html=1;rounded=0;entryX=0.5;entryY=0.5;entryDx=0;entryDy=15;entryPerimeter=0;exitX=0.5;exitY=0;exitDx=0;exitDy=0;" edge="1" parent="1">
          <mxGeometry width="50" height="50" relative="1" as="geometry">
            <mxPoint x="398.12" y="2360" as="sourcePoint" />
            <mxPoint x="397.62" y="2330" as="targetPoint" />
          </mxGeometry>
        </mxCell>
        <mxCell id="7xoEw0_jcS2L8A6iahL_-5" value="Создать пустой массив offspring для потомков" style="rounded=0;whiteSpace=wrap;html=1;" vertex="1" parent="1">
          <mxGeometry x="318.12" y="2360" width="160" height="40" as="geometry" />
        </mxCell>
        <mxCell id="7xoEw0_jcS2L8A6iahL_-6" value="Цикл i от 0 до&amp;nbsp;&lt;div&gt;selected.Count - 1 с шагом 2&lt;/div&gt;" style="shape=loopLimit;whiteSpace=wrap;html=1;" vertex="1" parent="1">
          <mxGeometry x="318.12" y="2430" width="160" height="40" as="geometry" />
        </mxCell>
        <mxCell id="7xoEw0_jcS2L8A6iahL_-7" value="" style="endArrow=none;html=1;rounded=0;entryX=0.5;entryY=0.5;entryDx=0;entryDy=15;entryPerimeter=0;exitX=0.5;exitY=0;exitDx=0;exitDy=0;" edge="1" parent="1">
          <mxGeometry width="50" height="50" relative="1" as="geometry">
            <mxPoint x="398.62" y="2430" as="sourcePoint" />
            <mxPoint x="398.12" y="2400" as="targetPoint" />
          </mxGeometry>
        </mxCell>
        <mxCell id="7xoEw0_jcS2L8A6iahL_-8" value="" style="endArrow=none;html=1;rounded=0;entryX=0.5;entryY=0.5;entryDx=0;entryDy=15;entryPerimeter=0;exitX=0.5;exitY=0;exitDx=0;exitDy=0;" edge="1" parent="1">
          <mxGeometry width="50" height="50" relative="1" as="geometry">
            <mxPoint x="398.12" y="2570" as="sourcePoint" />
            <mxPoint x="397.62" y="2540" as="targetPoint" />
          </mxGeometry>
        </mxCell>
        <mxCell id="7xoEw0_jcS2L8A6iahL_-9" value="Создать массивы child1 и child2 размером с хромосому из -1" style="rounded=0;whiteSpace=wrap;html=1;" vertex="1" parent="1">
          <mxGeometry x="318.12" y="2560" width="160" height="50" as="geometry" />
        </mxCell>
        <mxCell id="7xoEw0_jcS2L8A6iahL_-10" value="" style="endArrow=none;html=1;rounded=0;entryX=0.5;entryY=0.5;entryDx=0;entryDy=15;entryPerimeter=0;exitX=0.5;exitY=0;exitDx=0;exitDy=0;" edge="1" parent="1">
          <mxGeometry width="50" height="50" relative="1" as="geometry">
            <mxPoint x="398.12" y="2640" as="sourcePoint" />
            <mxPoint x="397.62" y="2610" as="targetPoint" />
          </mxGeometry>
        </mxCell>
        <mxCell id="7xoEw0_jcS2L8A6iahL_-11" value="a, b - случайные числа от 0 до размера хромосомы&lt;div&gt;a &amp;lt; b&lt;/div&gt;" style="rounded=0;whiteSpace=wrap;html=1;" vertex="1" parent="1">
          <mxGeometry x="318.12" y="2630" width="160" height="50" as="geometry" />
        </mxCell>
        <mxCell id="7xoEw0_jcS2L8A6iahL_-12" value="" style="endArrow=none;html=1;rounded=0;entryX=0.5;entryY=0.5;entryDx=0;entryDy=15;entryPerimeter=0;exitX=0.5;exitY=0;exitDx=0;exitDy=0;" edge="1" parent="1">
          <mxGeometry width="50" height="50" relative="1" as="geometry">
            <mxPoint x="401.87" y="2710" as="sourcePoint" />
            <mxPoint x="401.37" y="2680" as="targetPoint" />
          </mxGeometry>
        </mxCell>
        <mxCell id="7xoEw0_jcS2L8A6iahL_-14" value="Цикл j от a до b" style="shape=loopLimit;whiteSpace=wrap;html=1;" vertex="1" parent="1">
          <mxGeometry x="320" y="2710" width="160" height="40" as="geometry" />
        </mxCell>
        <mxCell id="7xoEw0_jcS2L8A6iahL_-15" value="" style="endArrow=none;html=1;rounded=0;entryX=0.5;entryY=0.5;entryDx=0;entryDy=15;entryPerimeter=0;exitX=0.5;exitY=0;exitDx=0;exitDy=0;" edge="1" parent="1">
          <mxGeometry width="50" height="50" relative="1" as="geometry">
            <mxPoint x="400" y="2780" as="sourcePoint" />
            <mxPoint x="399.5" y="2750" as="targetPoint" />
          </mxGeometry>
        </mxCell>
        <mxCell id="7xoEw0_jcS2L8A6iahL_-16" value="&lt;div&gt;Поменять ген j местами&lt;/div&gt;child1[j] = parent2[j]&lt;div&gt;child2[j] = parent1[j]&lt;br&gt;&lt;/div&gt;" style="rounded=0;whiteSpace=wrap;html=1;" vertex="1" parent="1">
          <mxGeometry x="320" y="2780" width="160" height="70" as="geometry" />
        </mxCell>
        <mxCell id="7xoEw0_jcS2L8A6iahL_-17" value="" style="endArrow=none;html=1;rounded=0;entryX=0.5;entryY=0.5;entryDx=0;entryDy=15;entryPerimeter=0;exitX=0.5;exitY=0;exitDx=0;exitDy=0;" edge="1" parent="1">
          <mxGeometry width="50" height="50" relative="1" as="geometry">
            <mxPoint x="398.12" y="2500" as="sourcePoint" />
            <mxPoint x="397.62" y="2470" as="targetPoint" />
          </mxGeometry>
        </mxCell>
        <mxCell id="7xoEw0_jcS2L8A6iahL_-18" value="parent1 = selected[i]&lt;div&gt;parent2 = selected[i + 1]&lt;/div&gt;" style="rounded=0;whiteSpace=wrap;html=1;" vertex="1" parent="1">
          <mxGeometry x="318.12" y="2490" width="160" height="50" as="geometry" />
        </mxCell>
        <mxCell id="7xoEw0_jcS2L8A6iahL_-19" value="j" style="shape=loopLimit;whiteSpace=wrap;html=1;direction=west;" vertex="1" parent="1">
          <mxGeometry x="320" y="2880" width="160" height="30" as="geometry" />
        </mxCell>
        <mxCell id="7xoEw0_jcS2L8A6iahL_-20" value="" style="endArrow=none;html=1;rounded=0;entryX=0.5;entryY=1;entryDx=0;entryDy=0;exitX=0.5;exitY=0;exitDx=0;exitDy=0;" edge="1" parent="1">
          <mxGeometry width="50" height="50" relative="1" as="geometry">
            <mxPoint x="398.12" y="2880" as="sourcePoint" />
            <mxPoint x="398.12" y="2850" as="targetPoint" />
          </mxGeometry>
        </mxCell>
        <mxCell id="7xoEw0_jcS2L8A6iahL_-21" value="" style="endArrow=none;html=1;rounded=0;entryX=0.5;entryY=0.5;entryDx=0;entryDy=15;entryPerimeter=0;exitX=0.5;exitY=0;exitDx=0;exitDy=0;" edge="1" parent="1">
          <mxGeometry width="50" height="50" relative="1" as="geometry">
            <mxPoint x="399.07" y="2940" as="sourcePoint" />
            <mxPoint x="398.57" y="2910" as="targetPoint" />
          </mxGeometry>
        </mxCell>
        <mxCell id="7xoEw0_jcS2L8A6iahL_-22" value="&lt;div&gt;Заполнить остальные значения child1 значениями из parent1, которых нет в промежутке [a, b)&lt;/div&gt;" style="rounded=0;whiteSpace=wrap;html=1;" vertex="1" parent="1">
          <mxGeometry x="319.07" y="2940" width="160" height="70" as="geometry" />
        </mxCell>
        <mxCell id="7xoEw0_jcS2L8A6iahL_-23" value="" style="endArrow=none;html=1;rounded=0;entryX=0.5;entryY=0.5;entryDx=0;entryDy=15;entryPerimeter=0;exitX=0.5;exitY=0;exitDx=0;exitDy=0;" edge="1" parent="1">
          <mxGeometry width="50" height="50" relative="1" as="geometry">
            <mxPoint x="399.07" y="3040" as="sourcePoint" />
            <mxPoint x="398.57" y="3010" as="targetPoint" />
          </mxGeometry>
        </mxCell>
        <mxCell id="7xoEw0_jcS2L8A6iahL_-24" value="&lt;div&gt;Заполнить остальные значения child2 значениями из parent2, которых нет в промежутке [a, b)&lt;/div&gt;" style="rounded=0;whiteSpace=wrap;html=1;" vertex="1" parent="1">
          <mxGeometry x="319.07" y="3030" width="160" height="70" as="geometry" />
        </mxCell>
        <mxCell id="7xoEw0_jcS2L8A6iahL_-25" value="" style="endArrow=none;html=1;rounded=0;entryX=0.5;entryY=0.5;entryDx=0;entryDy=15;entryPerimeter=0;exitX=0.5;exitY=0;exitDx=0;exitDy=0;" edge="1" parent="1">
          <mxGeometry width="50" height="50" relative="1" as="geometry">
            <mxPoint x="399.07" y="3130" as="sourcePoint" />
            <mxPoint x="398.57" y="3100" as="targetPoint" />
          </mxGeometry>
        </mxCell>
        <mxCell id="7xoEw0_jcS2L8A6iahL_-26" value="Добавить child1, child2 в offspring" style="rounded=0;whiteSpace=wrap;html=1;" vertex="1" parent="1">
          <mxGeometry x="319.07" y="3120" width="160" height="70" as="geometry" />
        </mxCell>
        <mxCell id="7xoEw0_jcS2L8A6iahL_-28" value="offspring" style="shape=parallelogram;perimeter=parallelogramPerimeter;whiteSpace=wrap;html=1;dashed=0;" vertex="1" parent="1">
          <mxGeometry x="316.25" y="3430" width="167.5" height="40" as="geometry" />
        </mxCell>
        <mxCell id="7xoEw0_jcS2L8A6iahL_-29" value="Конец" style="html=1;dashed=0;whiteSpace=wrap;shape=mxgraph.dfd.start" vertex="1" parent="1">
          <mxGeometry x="320.94" y="3490" width="160" height="30" as="geometry" />
        </mxCell>
        <mxCell id="7xoEw0_jcS2L8A6iahL_-31" value="i" style="shape=loopLimit;whiteSpace=wrap;html=1;direction=west;" vertex="1" parent="1">
          <mxGeometry x="320.94" y="3220" width="160" height="30" as="geometry" />
        </mxCell>
        <mxCell id="7xoEw0_jcS2L8A6iahL_-32" value="" style="endArrow=none;html=1;rounded=0;entryX=0.5;entryY=1;entryDx=0;entryDy=0;exitX=0.5;exitY=0;exitDx=0;exitDy=0;" edge="1" parent="1">
          <mxGeometry width="50" height="50" relative="1" as="geometry">
            <mxPoint x="399.5" y="3220" as="sourcePoint" />
            <mxPoint x="399.5" y="3190" as="targetPoint" />
          </mxGeometry>
        </mxCell>
        <mxCell id="7xoEw0_jcS2L8A6iahL_-33" value="Selected содержит&amp;nbsp;&lt;div&gt;нечетное число&amp;nbsp;&lt;/div&gt;&lt;div&gt;элементов&lt;/div&gt;" style="rhombus;whiteSpace=wrap;html=1;" vertex="1" parent="1">
          <mxGeometry x="320" y="3270" width="165" height="100" as="geometry" />
        </mxCell>
        <mxCell id="7xoEw0_jcS2L8A6iahL_-34" value="" style="endArrow=none;html=1;rounded=0;exitX=0.5;exitY=0;exitDx=0;exitDy=0;" edge="1" parent="1">
          <mxGeometry width="50" height="50" relative="1" as="geometry">
            <mxPoint x="401.37" y="3270" as="sourcePoint" />
            <mxPoint x="401" y="3250" as="targetPoint" />
          </mxGeometry>
        </mxCell>
        <mxCell id="7xoEw0_jcS2L8A6iahL_-35" value="Добавить в offspring последнюю особь из selected" style="rounded=0;whiteSpace=wrap;html=1;" vertex="1" parent="1">
          <mxGeometry x="480" y="3340" width="140" height="50" as="geometry" />
        </mxCell>
        <mxCell id="7xoEw0_jcS2L8A6iahL_-36" value="" style="endArrow=none;html=1;rounded=0;entryX=1;entryY=0.5;entryDx=0;entryDy=0;exitX=0.5;exitY=0;exitDx=0;exitDy=0;" edge="1" parent="1" source="7xoEw0_jcS2L8A6iahL_-35">
          <mxGeometry width="50" height="50" relative="1" as="geometry">
            <mxPoint x="370" y="3490" as="sourcePoint" />
            <mxPoint x="480" y="3320" as="targetPoint" />
            <Array as="points">
              <mxPoint x="550" y="3320" />
              <mxPoint x="480" y="3320" />
            </Array>
          </mxGeometry>
        </mxCell>
        <mxCell id="7xoEw0_jcS2L8A6iahL_-37" value="" style="endArrow=none;html=1;rounded=0;entryX=0;entryY=0.5;entryDx=0;entryDy=0;" edge="1" parent="1">
          <mxGeometry width="50" height="50" relative="1" as="geometry">
            <mxPoint x="400" y="3410" as="sourcePoint" />
            <mxPoint x="320" y="3320" as="targetPoint" />
            <Array as="points">
              <mxPoint x="280" y="3410" />
              <mxPoint x="280" y="3320" />
            </Array>
          </mxGeometry>
        </mxCell>
        <mxCell id="7xoEw0_jcS2L8A6iahL_-38" value="да" style="text;html=1;align=center;verticalAlign=middle;whiteSpace=wrap;rounded=0;" vertex="1" parent="1">
          <mxGeometry x="470" y="3290" width="60" height="30" as="geometry" />
        </mxCell>
        <mxCell id="7xoEw0_jcS2L8A6iahL_-39" value="" style="endArrow=none;html=1;rounded=0;entryX=0.5;entryY=1;entryDx=0;entryDy=0;" edge="1" parent="1" target="7xoEw0_jcS2L8A6iahL_-35">
          <mxGeometry width="50" height="50" relative="1" as="geometry">
            <mxPoint x="400" y="3430" as="sourcePoint" />
            <mxPoint x="560" y="3397" as="targetPoint" />
            <Array as="points">
              <mxPoint x="400" y="3410" />
              <mxPoint x="550" y="3410" />
            </Array>
          </mxGeometry>
        </mxCell>
        <mxCell id="7xoEw0_jcS2L8A6iahL_-42" value="" style="endArrow=none;html=1;rounded=0;entryX=0.5;entryY=1;entryDx=0;entryDy=0;" edge="1" parent="1">
          <mxGeometry width="50" height="50" relative="1" as="geometry">
            <mxPoint x="400" y="3490" as="sourcePoint" />
            <mxPoint x="400" y="3470" as="targetPoint" />
          </mxGeometry>
        </mxCell>
      </root>
    </mxGraphModel>
  </diagram>
</mxfile>
